<svg width="105" height="102" viewBox="0 0 105 102" fill="none"
    xmlns="http://www.w3.org/2000/svg">
    <path d="M56.5302 101.857C37.0512 101.857 36.5519 92.5189 36.1515 85.0177C35.9575 81.3978 35.7902 78.2619 33.7797 76.2725C31.5353 76.4852 29.1334 76.5924 26.6276 76.5924C14.9868 76.5924 0.5 76.5924 0.5 67.3503C0.5 60.8267 4.61033 57.845 8.58505 54.9608C11.643 52.7408 14.805 50.4469 17.0079 46.3512C19.4049 41.8974 20.8267 39.2536 22.4686 37.6531C25.6946 10.9189 35.5945 0 56.5302 0C85.3561 0 90.7673 15.7714 95.1147 28.4434C95.4622 29.4552 95.8033 30.4499 96.1508 31.4194C104.404 54.4298 104.404 59.5697 104.404 67.3503C104.404 83.6714 84.7422 101.857 56.5302 101.857ZM34.992 72.8004L35.9128 73.7098C39.0325 76.6087 39.2558 80.7937 39.4726 84.8391C39.8648 92.186 40.2042 98.531 56.5302 98.531C82.0269 98.531 101.078 82.0685 101.078 67.3503C101.078 59.9173 101.078 55.0079 93.0197 32.5416C92.6673 31.5583 92.3214 30.549 91.969 29.5234C87.7564 17.2436 82.9818 3.32594 56.5302 3.32594C37.2867 3.32594 28.6422 13.2331 25.6979 38.6624L25.6208 39.3323L25.0986 39.7586C23.7304 40.8759 22.3029 43.5303 19.9376 47.9265C17.3733 52.6921 13.742 55.3279 10.5379 57.6518C6.64113 60.4808 3.82594 62.5238 3.82594 67.3503C3.82594 73.2665 17.0047 73.2665 26.6276 73.2665C29.3129 73.2665 31.8666 73.1382 34.2174 72.8848L34.992 72.8004Z" fill="#3E3A39"/>
    <path d="M56.5293 1.66309C86.4308 1.66309 89.9566 19.0732 94.5857 31.9803C102.741 54.7182 102.741 59.7711 102.741 67.3504C102.741 82.509 83.7125 100.194 56.5293 100.194C29.3462 100.194 42.4714 82.0755 34.7828 74.9297C26.6278 67.3504 22.4529 53.0974 23.9095 39.5596C26.6278 14.2953 34.7828 1.66309 56.5293 1.66309Z" fill="url(#paint0_radial_8_1402)"/>
    <path d="M32.0646 37.033C42.9378 37.033 42.9378 37.033 48.3745 47.1387C53.8111 57.2444 56.5294 52.1916 56.5294 57.2444C56.5294 59.7709 56.5294 74.9295 26.6279 74.9295C15.7547 74.9295 2.16309 74.9295 2.16309 67.3502C2.16309 57.2444 13.0363 57.2444 18.473 47.1387C23.9096 37.033 23.9096 37.033 32.0646 37.033Z" fill="url(#paint1_radial_8_1402)"/>
    <path d="M37.4443 50.2179C37.7952 50.5443 38.9037 49.9231 39.9202 48.8303C40.9366 47.7374 41.4761 46.5869 41.1252 46.2605C40.7742 45.9341 39.6657 46.5553 38.6493 47.6481C37.6328 48.7409 37.0933 49.8915 37.4443 50.2179Z" fill="#804F21"/>
    <path d="M67.2161 35.7538C70.0862 35.7538 72.4128 32.9618 72.4128 29.5176C72.4128 26.0735 70.0862 23.2815 67.2161 23.2815C64.346 23.2815 62.0193 26.0735 62.0193 29.5176C62.0193 32.9618 64.346 35.7538 67.2161 35.7538Z" fill="#231815"/>
    <path d="M65.7822 28.8213C66.9005 28.8213 67.8071 27.9217 67.8071 26.8119C67.8071 25.7021 66.9005 24.8025 65.7822 24.8025C64.6639 24.8025 63.7573 25.7021 63.7573 26.8119C63.7573 27.9217 64.6639 28.8213 65.7822 28.8213Z" fill="url(#paint2_linear_8_1402)"/>
    <defs>
        <radialGradient id="paint0_radial_8_1402" cx="0" cy="0" r="1" gradientUnits="userSpaceOnUse" gradientTransform="translate(53.8278 34.7146) scale(69.9342 69.9342)">
            <stop offset="0.526549" stop-color="white"/>
            <stop offset="1" stop-color="#D9B98B"/>
        </radialGradient>
        <radialGradient id="paint1_radial_8_1402" cx="0" cy="0" r="1" gradientUnits="userSpaceOnUse" gradientTransform="translate(24.1495 48.0821) rotate(30.0167) scale(23.4303 53.4746)">
            <stop offset="0.450804" stop-color="#F8EB00"/>
            <stop offset="1" stop-color="#F5B32C"/>
        </radialGradient>
        <linearGradient id="paint2_linear_8_1402" x1="65.7822" y1="24.8025" x2="65.7822" y2="28.8213" gradientUnits="userSpaceOnUse">
            <stop stop-color="white"/>
            <stop offset="1" stop-color="white" stop-opacity="0.3"/>
        </linearGradient>
    </defs>
</svg>
